<?xml version="1.0" encoding="UTF-8" standalone="no" ?>
<!DOCTYPE svg PUBLIC "-//W3C//DTD SVG 1.1//EN" "http://www.w3.org/Graphics/SVG/1.1/DTD/svg11.dtd">
<svg xmlns="http://www.w3.org/2000/svg" xmlns:xlink="http://www.w3.org/1999/xlink" version="1.1" width="321" height="64" viewBox="0 0 1080 1080" xml:space="preserve">
<desc>Created with Fabric.js 5.2.4</desc>
<defs>
</defs>
<g transform="matrix(1 0 0 1 540 540)" id="108808ec-8e10-4ef1-941e-29ad7eb61303"  >
<rect style="stroke: none; stroke-width: 1; stroke-dasharray: none; stroke-linecap: butt; stroke-dashoffset: 0; stroke-linejoin: miter; stroke-miterlimit: 4; fill: rgb(255,255,255); fill-rule: nonzero; opacity: 1; visibility: hidden;" vector-effect="non-scaling-stroke"  x="-540" y="-540" rx="0" ry="0" width="1080" height="1080" />
</g>
<g transform="matrix(1 0 0 1 540 540)" id="826e7d18-4db9-497d-8ea3-db723d37a0d1"  >
</g>
<g transform="matrix(1 0 0 1 540 540)"  >
<g style="" vector-effect="non-scaling-stroke"   >
		<g transform="matrix(2.63 0 0 2.63 -124.93 0.59)"  >
<linearGradient id="SVGID_SvgjsLinearGradient10332_3" gradientUnits="objectBoundingBox" gradientTransform="matrix(1 0 0 1 0 0)"  x1="0" y1="0" x2="1" y2="0">
<stop offset="0%" style="stop-color:rgb(0,104,56);stop-opacity: 1"/>
<stop offset="100%" style="stop-color:rgb(150,207,36);stop-opacity: 1"/>
</linearGradient>
<path style="stroke: none; stroke-width: 1; stroke-dasharray: none; stroke-linecap: butt; stroke-dashoffset: 0; stroke-linejoin: miter; stroke-miterlimit: 4; fill: url(#SVGID_SvgjsLinearGradient10332_3); fill-rule: nonzero; opacity: 1;" vector-effect="non-scaling-stroke"  transform=" translate(-13.93, -13.52)" d="M 14.08 19.02 C 14.26 19.02 14.36002 19.16 14.36002 19.32 C 14.36002 19.858 13.41602 20.23 12.32002 20.23 C 6.67202 20.23 10.85202 14.08 5.98002 14.08 L 5.18201 14.08 L 5.1840022 18.63 C 5.1840022 18.964 5.4880022 19.259999999999998 5.9000022 19.259999999999998 L 6.180002200000001 19.259999999999998 C 6.4000022 19.259999999999998 6.5600022000000004 19.419999999999998 6.5600022000000004 19.619999999999997 C 6.5600022000000004 19.839999999999996 6.4000022 19.999999999999996 6.180002200000001 19.999999999999996 L 0.7840022000000006 19.999999999999996 C 0.5640022000000007 19.999999999999996 0.40400220000000064 19.839999999999996 0.40400220000000064 19.619999999999997 C 0.40400220000000064 19.419999999999998 0.5640022000000007 19.259999999999998 0.7840022000000006 19.259999999999998 L 1.0640022000000007 19.259999999999998 C 1.4720022000000006 19.259999999999998 1.7800222000000008 18.973999999999997 1.7800222000000008 18.637999999999998 L 1.7760182000000009 8.189999999999998 C 1.7760182000000009 7.851999999999998 1.4720182000000008 7.559999999999998 1.060018200000001 7.559999999999998 L 0.7800182000000009 7.559999999999998 C 0.5600182000000009 7.559999999999998 0.4000182000000009 7.399999999999998 0.4000182000000009 7.1999999999999975 C 0.4000182000000009 6.979999999999998 0.5600182000000009 6.819999999999998 0.7800182000000009 6.819999999999998 L 7.400018200000001 6.819999999999998 C 10.8600182 6.819999999999998 12.5400182 8.099999999999998 12.5400182 10.219999999999997 C 12.5400182 11.897999999999996 11.2260182 13.113999999999997 8.9980182 13.583999999999996 C 13.682018200000002 14.533999999999995 11.398018200000001 19.279999999999994 13.180018200000001 19.279999999999994 C 13.640018200000002 19.279999999999994 13.760018200000001 19.019999999999992 14.080018200000001 19.019999999999992 z M 5.182 13.32 L 6.460000000000001 13.32 C 8.440000000000001 13.32 8.920000000000002 11.8 8.920000000000002 10.34 C 8.920000000000002 8.94 8.140000000000002 7.5600000000000005 6.060000000000002 7.5600000000000005 L 5.896000000000003 7.5600000000000005 C 5.488000000000002 7.5600000000000005 5.179980000000002 7.852 5.179980000000002 8.182 z M 27.08 6.82 C 27.299999999999997 6.82 27.459999999999997 6.98 27.459999999999997 7.180000000000001 C 27.459999999999997 7.4 27.299999999999997 7.5600000000000005 27.08 7.5600000000000005 L 26.799999999999997 7.5600000000000005 C 26.359999999999996 7.5600000000000005 26.08 7.9 26.08 8.26 L 26.08 20 L 24.4 20 L 16.939999999999998 10.35 L 16.939999999999998 18.560000000000002 C 16.939999999999998 18.92 17.22 19.26 17.659999999999997 19.26 L 17.939999999999998 19.26 C 18.159999999999997 19.26 18.319999999999997 19.42 18.319999999999997 19.64 C 18.319999999999997 19.84 18.159999999999997 20 17.939999999999998 20 L 15.039999999999997 20 C 14.819999999999997 20 14.659999999999997 19.84 14.659999999999997 19.64 C 14.659999999999997 19.42 14.819999999999997 19.26 15.039999999999997 19.26 L 15.319999999999997 19.26 C 15.759999999999996 19.26 16.039999999999996 18.92 16.039999999999996 18.560000000000002 L 16.039999999999996 8.260000000000002 C 16.039999999999996 7.900000000000001 15.759999999999996 7.560000000000001 15.319999999999995 7.560000000000001 L 15.039999999999996 7.560000000000001 C 14.819999999999995 7.560000000000001 14.659999999999995 7.400000000000001 14.659999999999995 7.1800000000000015 C 14.659999999999995 6.980000000000001 14.819999999999995 6.820000000000001 15.039999999999996 6.820000000000001 L 18.219999999999995 6.820000000000001 L 25.179999999999996 15.764000000000003 L 25.179999999999996 8.260000000000003 C 25.179999999999996 7.900000000000003 24.899999999999995 7.560000000000003 24.459999999999997 7.560000000000003 L 24.179999999999996 7.560000000000003 C 23.959999999999997 7.560000000000003 23.799999999999997 7.400000000000003 23.799999999999997 7.180000000000003 C 23.799999999999997 6.980000000000003 23.959999999999997 6.820000000000003 24.179999999999996 6.820000000000003 L 27.079999999999995 6.820000000000003 z" stroke-linecap="round" />
</g>
		<g transform="matrix(0.83 0 0 0.83 -56.98 19.5)"  >
<path style="stroke: none; stroke-width: 1; stroke-dasharray: none; stroke-linecap: butt; stroke-dashoffset: 0; stroke-linejoin: miter; stroke-miterlimit: 4; fill: none; fill-rule: nonzero; opacity: 1;" vector-effect="non-scaling-stroke"  transform=" translate(-20, -73.45)" d="M 16.014 70.737 C 15.415 71.335 14.722999999999999 71.844 13.988 72.23299999999999 L 13.988 83.84599999999999 C 13.988 85.11899999999999 15.024 86.15599999999999 16.298 86.15599999999999 L 23.705 86.15599999999999 C 24.977999999999998 86.15599999999999 26.014999999999997 85.11999999999999 26.014999999999997 83.84599999999999 L 26.014999999999997 60.73599999999999 L 16.014 70.737 C 16.015 70.736 16.014 70.736 16.014 70.737 z" stroke-linecap="round" />
</g>
		<g transform="matrix(0.83 0 0 0.83 -40.91 21.48)"  >
<path style="stroke: none; stroke-width: 1; stroke-dasharray: none; stroke-linecap: butt; stroke-dashoffset: 0; stroke-linejoin: miter; stroke-miterlimit: 4; fill: none; fill-rule: nonzero; opacity: 1;" vector-effect="non-scaling-stroke"  transform=" translate(-39.32, -75.82)" d="M 33.302 65.47 L 33.302 83.865 C 33.302 85.13799999999999 34.338 86.175 35.612 86.175 L 43.019000000000005 86.175 C 44.29200000000001 86.175 45.32900000000001 85.139 45.32900000000001 83.865 L 45.32900000000001 76.49 C 44.248000000000005 76.06899999999999 43.25300000000001 75.419 42.418000000000006 74.58399999999999 L 33.302 65.47 z" stroke-linecap="round" />
</g>
		<g transform="matrix(0.83 0 0 0.83 -33.17 -15.83)"  >
<path style="stroke: none; stroke-width: 1; stroke-dasharray: none; stroke-linecap: butt; stroke-dashoffset: 0; stroke-linejoin: miter; stroke-miterlimit: 4; fill: none; fill-rule: nonzero; opacity: 1;" vector-effect="non-scaling-stroke"  transform=" translate(-48.62, -30.96)" d="M 44.937 43.731 C 46.617 44.006 47.007 44.465 47.031 46.183 C 47.031 46.481 47.036 46.76 47.04 47.039 C 47.045 47.329 47.05 47.619 47.05 47.913000000000004 C 47.05 48.002 47.059999999999995 48.056000000000004 47.067 48.085 C 47.069 48.085 47.071 48.085 47.074 48.085 C 47.092 48.085 47.128 48.09 47.178999999999995 48.091 C 48.01 48.109 48.827999999999996 48.109 49.663999999999994 48.091 C 49.70199999999999 48.09 49.730999999999995 48.087 49.751999999999995 48.083 C 49.751 48.065 49.754 48.031 49.754 47.986 C 49.754 47.721999999999994 49.757999999999996 47.458999999999996 49.762 47.195 C 49.77 46.694 49.778 46.192 49.755 45.682 C 49.717000000000006 44.832 49.993 43.726 51.529 43.287 C 53.123000000000005 42.845 54.441 42.003 55.454 40.784 C 56.765 39.192 57.278 37.21 56.897 35.205999999999996 C 56.495999999999995 33.102 55.137 31.269999999999996 53.167 30.179999999999996 C 51.895 29.470999999999997 50.576 28.931999999999995 49.178000000000004 28.360999999999997 L 48.843 28.223999999999997 C 48.063 27.898999999999997 47.06100000000001 27.434999999999995 46.17100000000001 26.699999999999996 C 45.227000000000004 25.943999999999996 44.76100000000001 24.882999999999996 44.90500000000001 23.798999999999996 C 45.04800000000001 22.717999999999996 45.80400000000001 21.780999999999995 46.92600000000001 21.290999999999997 C 47.57800000000001 21.014999999999997 48.24200000000001 20.938999999999997 48.74900000000001 20.903999999999996 C 50.87600000000001 20.786999999999995 52.918000000000006 21.187999999999995 54.83700000000001 22.097999999999995 C 54.87300000000001 22.114999999999995 54.90600000000001 22.129999999999995 54.93500000000001 22.144999999999996 C 54.94600000000001 22.112999999999996 54.95800000000001 22.078999999999997 54.97100000000001 22.040999999999997 C 55.18500000000001 21.356999999999996 55.38700000000001 20.658999999999995 55.58900000000001 19.952999999999996 L 55.826000000000015 19.131999999999994 C 55.847000000000016 19.063999999999993 55.853000000000016 19.022999999999993 55.85500000000002 18.999999999999993 C 55.84000000000002 18.996999999999993 55.795000000000016 18.967999999999993 55.71200000000002 18.930999999999994 C 54.60800000000002 18.439999999999994 53.50800000000002 18.111999999999995 52.429000000000016 17.951999999999995 C 50.32800000000002 17.620999999999995 49.987000000000016 17.224999999999994 49.987000000000016 15.122999999999994 C 49.98300000000002 14.627999999999995 49.97900000000001 14.113999999999994 49.942000000000014 13.858999999999995 C 49.69000000000001 13.824999999999994 49.183000000000014 13.824999999999994 48.69000000000001 13.824999999999994 L 47.69600000000001 13.824999999999994 C 47.57800000000001 13.828999999999994 47.48900000000001 13.834999999999994 47.42300000000001 13.841999999999993 C 47.41700000000001 13.913999999999993 47.412000000000006 14.010999999999994 47.41000000000001 14.145999999999994 C 47.39800000000001 14.474999999999994 47.40200000000001 14.775999999999994 47.40600000000001 15.077999999999994 L 47.41000000000001 15.574999999999994 C 47.41000000000001 17.372999999999994 47.13600000000001 17.763999999999996 45.45800000000001 18.367999999999995 C 42.27500000000001 19.521999999999995 40.671000000000014 21.538999999999994 40.48900000000001 24.558999999999994 C 40.33100000000001 27.083999999999993 41.47200000000001 28.984999999999992 44.07900000000001 30.542999999999992 C 45.12800000000001 31.16699999999999 46.25900000000001 31.61999999999999 47.45700000000001 32.099999999999994 C 47.99600000000001 32.315999999999995 48.53500000000001 32.53099999999999 49.06400000000001 32.76299999999999 C 49.89300000000001 33.11999999999999 50.57600000000001 33.51999999999999 51.14800000000001 33.980999999999995 C 52.19600000000001 34.843999999999994 52.71400000000001 36.084999999999994 52.54300000000001 37.306999999999995 C 52.372000000000014 38.522999999999996 51.53800000000001 39.568 50.31000000000002 40.102 C 49.15900000000001 40.598 47.92800000000002 40.760999999999996 46.542000000000016 40.611 C 44.515000000000015 40.358 42.774000000000015 39.831999999999994 41.20600000000002 39.003 C 41.180000000000014 38.99 41.15600000000002 38.977 41.13300000000002 38.966 C 41.12300000000002 38.998 41.112000000000016 39.034 41.100000000000016 39.073 C 40.835000000000015 39.919 40.60800000000002 40.758 40.381000000000014 41.596000000000004 C 40.268000000000015 41.99 40.237000000000016 42.169000000000004 40.23000000000001 42.25000000000001 C 40.29000000000001 42.297000000000004 40.427000000000014 42.385000000000005 40.73300000000001 42.53300000000001 C 41.885 43.088 43.221 43.468 44.937 43.731 z" stroke-linecap="round" />
</g>
		<g transform="matrix(0.83 0 0 0.83 -24.85 21.05)"  >
<path style="stroke: none; stroke-width: 1; stroke-dasharray: none; stroke-linecap: butt; stroke-dashoffset: 0; stroke-linejoin: miter; stroke-miterlimit: 4; fill: none; fill-rule: nonzero; opacity: 1;" vector-effect="non-scaling-stroke"  transform=" translate(-58.63, -75.31)" d="M 54.368 74.584 C 53.841 75.111 53.253 75.562 52.614000000000004 75.928 L 52.614000000000004 83.864 C 52.614000000000004 85.137 53.650000000000006 86.174 54.92400000000001 86.174 L 62.331 86.174 C 63.605000000000004 86.174 64.641 85.138 64.641 83.864 L 64.641 65.221 C 64.641 64.953 64.595 64.69200000000001 64.50800000000001 64.446 L 54.368 74.584 z" stroke-linecap="round" />
</g>
		<g transform="matrix(0.83 0 0 0.83 -32.03 -2.39)"  >
<path style="stroke: none; stroke-width: 1; stroke-dasharray: none; stroke-linecap: butt; stroke-dashoffset: 0; stroke-linejoin: miter; stroke-miterlimit: 4; fill: none; fill-rule: nonzero; opacity: 1;" vector-effect="non-scaling-stroke"  transform=" translate(-50, -47.13)" d="M 92.031 23.346 L 91.796 23.346 L 76.865 24.05 C 76.038 24.088 75.901 24.143 75.738 24.494 C 75.609 24.769 75.583 24.825 76.138 25.38 L 77.43 26.677 C 78.52600000000001 27.78 79.62 28.881999999999998 80.733 29.956 C 80.922 30.137999999999998 81.03 30.389 81.03200000000001 30.651 C 81.034 30.913 80.93100000000001 31.166 80.745 31.351 L 49.094 63.004 C 48.712 63.385999999999996 48.093 63.385999999999996 47.711 63.004 L 28.976 44.27 C 28.421 43.715 27.778 43.598000000000006 27.337 43.598000000000006 C 26.725 43.598000000000006 26.14 43.84 25.689 44.279 L 7.632 62.335 C 7.196 62.771 6.957 63.352000000000004 6.957 63.974000000000004 C 6.957 64.595 7.197 65.177 7.632 65.61200000000001 L 8.445 66.42500000000001 C 9 66.98000000000002 9.643 67.09700000000001 10.084 67.09700000000001 C 10.695 67.09700000000001 11.280999999999999 66.855 11.732 66.41600000000001 L 26.645 51.503000000000014 C 26.828 51.320000000000014 27.076999999999998 51.216000000000015 27.337 51.216000000000015 C 27.597 51.216000000000015 27.846 51.31900000000002 28.029 51.503000000000014 L 46.763000000000005 70.23700000000002 C 47.318000000000005 70.79200000000003 47.961000000000006 70.90900000000002 48.40200000000001 70.90900000000002 C 49.013000000000005 70.90900000000002 49.59900000000001 70.66700000000002 50.05000000000001 70.22800000000002 L 84.81800000000001 35.46100000000002 C 85.19900000000001 35.08000000000002 85.81600000000002 35.07900000000002 86.19800000000001 35.45800000000002 L 90.71400000000001 39.93800000000002 C 90.71500000000002 39.94000000000002 90.78500000000001 40.009000000000015 90.78600000000002 40.01100000000002 C 91.02500000000002 40.25100000000002 91.29500000000002 40.52200000000002 91.45200000000001 40.52200000000002 C 91.47700000000002 40.52200000000002 91.57600000000001 40.50300000000002 91.73200000000001 40.42000000000002 C 92.10600000000001 40.218000000000025 92.31700000000001 39.943000000000026 92.35300000000001 39.07600000000002 C 92.57000000000001 34.19300000000002 92.804 29.33300000000002 93.04 24.454000000000022 C 93.05600000000001 24.01200000000002 92.992 23.68600000000002 92.858 23.547000000000022 C 92.734 23.417 92.44 23.346 92.031 23.346 z" stroke-linecap="round" />
</g>
		<g transform="matrix(0.83 0 0 0.83 -8.8 12.95)"  >
<path style="stroke: none; stroke-width: 1; stroke-dasharray: none; stroke-linecap: butt; stroke-dashoffset: 0; stroke-linejoin: miter; stroke-miterlimit: 4; fill: none; fill-rule: nonzero; opacity: 1;" vector-effect="non-scaling-stroke"  transform=" translate(-77.92, -65.57)" d="M 71.908 83.828 C 71.908 85.101 72.944 86.138 74.217 86.138 L 81.624 86.138 C 82.898 86.138 83.934 85.101 83.934 83.828 L 83.934 45 L 71.908 57.026 L 71.908 83.828 z" stroke-linecap="round" />
</g>
		<g transform="matrix(0.83 0 0 0.83 -56.98 18.94)"  >
<path style="stroke: none; stroke-width: 1; stroke-dasharray: none; stroke-linecap: butt; stroke-dashoffset: 0; stroke-linejoin: miter; stroke-miterlimit: 4; fill: rgb(26,70,94); fill-rule: nonzero; opacity: 1;" vector-effect="non-scaling-stroke"  transform=" translate(-20, -72.77)" d="M 27.277 57.485 C 26.923000000000002 57.362 26.531000000000002 57.453 26.266000000000002 57.717999999999996 L 14.632 69.352 C 14.049 69.935 13.356 70.40700000000001 12.628 70.71600000000001 C 12.267 70.86900000000001 12.032 71.22300000000001 12.032 71.61600000000001 L 12.032 83.84600000000002 C 12.032 86.19900000000001 13.946 88.11300000000001 16.298000000000002 88.11300000000001 L 23.705000000000002 88.11300000000001 C 26.058000000000003 88.11300000000001 27.971000000000004 86.19900000000001 27.971000000000004 83.84600000000002 L 27.971000000000004 58.88 C 27.971000000000004 58.677 27.950000000000003 58.473000000000006 27.928000000000004 58.291000000000004 C 27.883 57.92 27.63 57.607 27.277 57.485 z M 26.015 83.846 C 26.015 85.119 24.979 86.156 23.705000000000002 86.156 L 16.298000000000002 86.156 C 15.024000000000001 86.156 13.988000000000001 85.12 13.988000000000001 83.846 L 13.988000000000001 72.233 C 14.723 71.84400000000001 15.415000000000001 71.33500000000001 16.014000000000003 70.73700000000001 C 16.014000000000003 70.736 16.014000000000003 70.736 16.014000000000003 70.736 L 26.014000000000003 60.736000000000004 L 26.014000000000003 83.846 z" stroke-linecap="round" />
</g>
		<g transform="matrix(0.83 0 0 0.83 -32.03 -2.39)"  >
<path style="stroke: none; stroke-width: 1; stroke-dasharray: none; stroke-linecap: butt; stroke-dashoffset: 0; stroke-linejoin: miter; stroke-miterlimit: 4; fill: rgb(26,70,94); fill-rule: nonzero; opacity: 1;" vector-effect="non-scaling-stroke"  transform=" translate(-50, -47.13)" d="M 94.268 22.188 C 93.757 21.657999999999998 93.005 21.389 92.031 21.389 L 76.77300000000001 22.095 C 75.92600000000002 22.134999999999998 74.64500000000001 22.194 73.965 23.666999999999998 C 73.226 25.235999999999997 74.221 26.229 74.75500000000001 26.761999999999997 L 76.04200000000002 28.054999999999996 C 76.91200000000002 28.931999999999995 77.78200000000001 29.806999999999995 78.66100000000002 30.668999999999997 L 48.402 60.929 L 30.36 42.887 C 29.558 42.085 28.483999999999998 41.642 27.337 41.642 C 26.213 41.642 25.143 42.080000000000005 24.315 42.887 L 6.249 60.952 C 5.443 61.757 5 62.831 5 63.974 C 5 65.118 5.444 66.191 6.2490000000000006 66.996 L 7.062 67.809 C 7.864000000000001 68.611 8.938 69.054 10.085 69.054 C 11.208 69.054 12.278 68.61500000000001 13.107000000000001 67.809 L 27.338 53.577999999999996 L 45.381 71.62 C 46.183 72.42200000000001 47.257 72.86500000000001 48.404 72.86500000000001 C 49.527 72.86500000000001 50.597 72.427 51.426 71.62 L 85.51400000000001 37.532000000000004 L 89.40200000000002 41.39 C 89.85900000000001 41.85 90.48500000000001 42.478 91.45500000000001 42.478 C 91.83800000000001 42.478 92.24200000000002 42.366 92.66100000000002 42.144 C 94.06200000000001 41.385999999999996 94.27400000000002 40.076 94.31100000000002 39.159 C 94.52800000000002 34.283 94.76200000000001 29.424 94.99800000000002 24.537 C 95.034 23.505 94.796 22.737 94.268 22.188 z M 92.354 39.076 C 92.318 39.943 92.107 40.219 91.733 40.42 C 91.577 40.503 91.477 40.522 91.453 40.522 C 91.296 40.522 91.025 40.251 90.787 40.010999999999996 C 90.786 40.00899999999999 90.71600000000001 39.94 90.715 39.937999999999995 L 86.199 35.458 C 85.817 35.079 85.2 35.08 84.819 35.461 L 50.05 70.228 C 49.599 70.66699999999999 49.013 70.90899999999999 48.401999999999994 70.90899999999999 C 47.96099999999999 70.90899999999999 47.31799999999999 70.79199999999999 46.76299999999999 70.237 L 28.029 51.504 C 27.846 51.321 27.597 51.217 27.337 51.217 C 27.078 51.217 26.829 51.32 26.645 51.504 L 11.732 66.416 C 11.280999999999999 66.85499999999999 10.695 67.097 10.084 67.097 C 9.642999999999999 67.097 9 66.97999999999999 8.445 66.425 L 7.632000000000001 65.612 C 7.196000000000001 65.17599999999999 6.957000000000001 64.595 6.957000000000001 63.974 C 6.957000000000001 63.352 7.197000000000001 62.769999999999996 7.632000000000001 62.334999999999994 L 25.689 44.278999999999996 C 26.14 43.839999999999996 26.725 43.598 27.337 43.598 C 27.778 43.598 28.421 43.714999999999996 28.976 44.269999999999996 L 47.71 63.004 C 48.092 63.385999999999996 48.711 63.385999999999996 49.093 63.004 L 80.744 31.351999999999997 C 80.93 31.166999999999998 81.033 30.913999999999998 81.031 30.651999999999997 C 81.02900000000001 30.388999999999996 80.921 30.138999999999996 80.732 29.956999999999997 C 79.619 28.882999999999996 78.525 27.781999999999996 77.429 26.677999999999997 L 76.137 25.380999999999997 C 75.582 24.825999999999997 75.608 24.770999999999997 75.737 24.494999999999997 C 75.89999999999999 24.142999999999997 76.036 24.089 76.86399999999999 24.051 L 91.79499999999999 23.346999999999998 L 92.02999999999999 23.346999999999998 C 92.439 23.346999999999998 92.73399999999998 23.418 92.85799999999999 23.548 C 92.99199999999999 23.686 93.05599999999998 24.011999999999997 93.03999999999999 24.455 C 92.806 29.332 92.571 34.193 92.354 39.076 z" stroke-linecap="round" />
</g>
		<g transform="matrix(0.83 0 0 0.83 -33.17 -15.83)"  >
<path style="stroke: none; stroke-width: 1; stroke-dasharray: none; stroke-linecap: butt; stroke-dashoffset: 0; stroke-linejoin: miter; stroke-miterlimit: 4; fill: rgb(26,70,94); fill-rule: nonzero; opacity: 1;" vector-effect="non-scaling-stroke"  transform=" translate(-48.63, -30.97)" d="M 39.882 44.296 C 39.882 44.296 39.882999999999996 44.296 39.884 44.297 C 41.216 44.937999999999995 42.728 45.373 44.631 45.663 C 44.739 45.681 44.92 45.711 45.062 45.739999999999995 C 45.071 45.888999999999996 45.073 46.080999999999996 45.074999999999996 46.19799999999999 C 45.074999999999996 46.49199999999999 45.08 46.782 45.084999999999994 47.071999999999996 C 45.08899999999999 47.351 45.093999999999994 47.629999999999995 45.093999999999994 47.913999999999994 C 45.093999999999994 49.181 45.89399999999999 50.01899999999999 47.13499999999999 50.047999999999995 C 47.56599999999999 50.056999999999995 47.99199999999999 50.06099999999999 48.41899999999999 50.06099999999999 C 48.84699999999999 50.06099999999999 49.27499999999999 50.05599999999999 49.70899999999999 50.047999999999995 C 50.92499999999999 50.016999999999996 51.70999999999999 49.20799999999999 51.70999999999999 47.986 C 51.70999999999999 47.733 51.713999999999984 47.479 51.71799999999999 47.224999999999994 C 51.72599999999999 46.684999999999995 51.73399999999999 46.14399999999999 51.70899999999999 45.592999999999996 C 51.69599999999999 45.299 51.694999999999986 45.275 52.05999999999999 45.171 C 54.03799999999999 44.621 55.685999999999986 43.566 56.960999999999984 42.032 C 58.62599999999998 40.01 59.30299999999998 37.388 58.817999999999984 34.839999999999996 C 58.307999999999986 32.163 56.59399999999998 29.840999999999998 54.115999999999985 28.468999999999994 C 52.743999999999986 27.704999999999995 51.30699999999999 27.117999999999995 49.917999999999985 26.549999999999994 L 49.588999999999984 26.415999999999993 C 48.93999999999998 26.145999999999994 48.10599999999999 25.761999999999993 47.40399999999998 25.182999999999993 C 46.99599999999998 24.85599999999999 46.79199999999998 24.445999999999994 46.84299999999998 24.05699999999999 C 46.89599999999998 23.65599999999999 47.210999999999984 23.30099999999999 47.69699999999998 23.08899999999999 C 47.99399999999998 22.96399999999999 48.34899999999998 22.89399999999999 48.86999999999998 22.85799999999999 C 50.67599999999998 22.75899999999999 52.35299999999998 23.08699999999999 53.98599999999998 23.86199999999999 C 54.505999999999986 24.115999999999993 55.12099999999998 24.342999999999993 55.743999999999986 24.080999999999992 C 56.365999999999985 23.819999999999993 56.639999999999986 23.21699999999999 56.83099999999999 22.644999999999992 C 57.05599999999999 21.929999999999993 57.26099999999999 21.215999999999994 57.46899999999999 20.494999999999994 L 57.700999999999986 19.692999999999994 C 58.04499999999999 18.565999999999995 57.58999999999999 17.608999999999995 56.493999999999986 17.139999999999993 C 55.240999999999985 16.582999999999995 53.97099999999998 16.205999999999992 52.725999999999985 16.018999999999995 C 52.435999999999986 15.973999999999995 52.13899999999998 15.926999999999994 51.95699999999999 15.884999999999994 C 51.94399999999999 15.701999999999995 51.94399999999999 15.406999999999995 51.94399999999999 15.116999999999994 C 51.92199999999999 12.294999999999995 51.49599999999999 11.869999999999994 48.68999999999999 11.869999999999994 L 47.66299999999999 11.870999999999993 C 46.078999999999986 11.924999999999994 45.48099999999999 12.532999999999994 45.453999999999986 14.094999999999994 C 45.441999999999986 14.435999999999993 45.444999999999986 14.768999999999993 45.44999999999999 15.104999999999993 L 45.453999999999986 15.576999999999993 C 45.453999999999986 15.811999999999992 45.453999999999986 16.11799999999999 45.43799999999999 16.283999999999992 C 45.29499999999999 16.34999999999999 45.01999999999999 16.44899999999999 44.72499999999999 16.55399999999999 C 40.84999999999999 17.958999999999993 38.76699999999999 20.612999999999992 38.53599999999999 24.43999999999999 C 38.332999999999984 27.68399999999999 39.86099999999999 30.30299999999999 43.076999999999984 32.224999999999994 C 44.25799999999998 32.928 45.51399999999998 33.431 46.728999999999985 33.91799999999999 C 47.249999999999986 34.12599999999999 47.768999999999984 34.334999999999994 48.283999999999985 34.55899999999999 C 48.950999999999986 34.84799999999999 49.48599999999998 35.15699999999999 49.90999999999998 35.49899999999999 C 50.42799999999998 35.92599999999999 50.679999999999986 36.48599999999999 50.60299999999998 37.03599999999999 C 50.52699999999998 37.58199999999999 50.13399999999998 38.04499999999999 49.52999999999998 38.30899999999999 C 48.70199999999998 38.66499999999999 47.79599999999998 38.78399999999999 46.76899999999998 38.66999999999999 C 44.99399999999998 38.447999999999986 43.47299999999998 37.99199999999999 42.11799999999998 37.27599999999999 C 41.55199999999998 36.97499999999999 40.94099999999998 36.73299999999999 40.31199999999998 36.99799999999999 C 39.679999999999986 37.26099999999999 39.41599999999998 37.87899999999999 39.22799999999998 38.49899999999999 C 38.95899999999998 39.36199999999999 38.72499999999998 40.22399999999999 38.48099999999998 41.121999999999986 C 38.006 42.781 38.346 43.552 39.882 44.296 z M 40.381 41.597 C 40.608 40.759 40.835 39.92 41.1 39.074 C 41.112 39.035 41.123000000000005 38.998999999999995 41.133 38.967 C 41.156000000000006 38.978 41.18 38.991 41.206 39.004 C 42.773 39.833 44.514 40.358999999999995 46.542 40.611999999999995 C 47.928000000000004 40.76199999999999 49.159 40.599 50.31 40.102999999999994 C 51.538000000000004 39.568999999999996 52.373000000000005 38.523999999999994 52.543 37.30799999999999 C 52.714 36.08599999999999 52.196 34.84499999999999 51.147999999999996 33.98199999999999 C 50.57599999999999 33.520999999999994 49.894 33.120999999999995 49.06399999999999 32.763999999999996 C 48.53499999999999 32.532 47.995999999999995 32.31699999999999 47.456999999999994 32.101 C 46.25899999999999 31.619999999999997 45.12799999999999 31.168 44.07899999999999 30.544 C 41.471999999999994 28.986 40.330999999999996 27.085 40.48899999999999 24.560000000000002 C 40.67099999999999 21.540000000000003 42.27499999999999 19.524 45.45799999999999 18.369000000000003 C 47.13699999999999 17.764000000000003 47.40999999999999 17.374000000000002 47.40999999999999 15.576000000000004 L 47.40599999999999 15.079000000000004 C 47.401999999999994 14.776000000000003 47.39799999999999 14.475000000000005 47.40999999999999 14.147000000000004 C 47.41199999999999 14.012000000000004 47.41699999999999 13.915000000000004 47.42299999999999 13.843000000000004 C 47.48899999999999 13.836000000000004 47.57799999999999 13.830000000000004 47.69599999999999 13.826000000000004 L 48.68999999999999 13.826000000000004 C 49.18299999999999 13.826000000000004 49.68999999999999 13.826000000000004 49.94199999999999 13.860000000000005 C 49.97999999999999 14.115000000000006 49.983999999999995 14.629000000000005 49.986999999999995 15.124000000000004 C 49.986999999999995 17.226000000000003 50.327999999999996 17.622000000000003 52.428999999999995 17.953000000000003 C 53.507 18.114000000000004 54.60699999999999 18.441000000000003 55.711999999999996 18.932000000000002 C 55.794999999999995 18.968000000000004 55.839999999999996 18.998 55.855 19.001 C 55.852999999999994 19.024 55.846999999999994 19.065 55.82599999999999 19.133000000000003 L 55.58899999999999 19.954000000000004 C 55.38599999999999 20.660000000000004 55.18499999999999 21.358000000000004 54.97099999999999 22.042000000000005 C 54.95799999999999 22.080000000000005 54.94599999999999 22.115000000000006 54.93499999999999 22.146000000000004 C 54.90499999999999 22.132000000000005 54.871999999999986 22.116000000000003 54.83699999999999 22.099000000000004 C 52.91799999999999 21.189000000000004 50.87599999999999 20.788000000000004 48.74899999999999 20.905000000000005 C 48.24199999999999 20.940000000000005 47.57799999999999 21.016000000000005 46.92599999999999 21.292000000000005 C 45.80299999999999 21.782000000000004 45.04799999999999 22.719000000000005 44.90499999999999 23.800000000000004 C 44.76099999999999 24.884000000000004 45.22699999999999 25.946000000000005 46.170999999999985 26.701000000000004 C 47.060999999999986 27.436000000000003 48.063999999999986 27.900000000000006 48.84299999999998 28.225000000000005 L 49.17799999999998 28.362000000000005 C 50.57499999999998 28.933000000000007 51.893999999999984 29.472000000000005 53.16699999999998 30.181000000000004 C 55.13699999999998 31.271000000000004 56.49599999999998 33.103 56.89699999999998 35.20700000000001 C 57.278999999999975 37.211000000000006 56.76499999999998 39.19400000000001 55.45399999999998 40.78500000000001 C 54.44099999999998 42.00400000000001 53.122999999999976 42.84600000000001 51.52899999999998 43.28800000000001 C 49.99299999999998 43.72700000000001 49.71599999999998 44.83300000000001 49.75499999999998 45.683000000000014 C 49.777999999999984 46.19300000000001 49.76999999999998 46.69600000000001 49.76199999999998 47.19600000000001 C 49.75799999999998 47.460000000000015 49.75399999999998 47.72300000000001 49.75399999999998 47.98700000000001 C 49.75399999999998 48.03300000000001 49.750999999999976 48.06600000000001 49.751999999999974 48.08400000000001 C 49.73099999999997 48.08800000000001 49.70199999999998 48.09100000000001 49.66399999999997 48.09200000000001 C 48.827999999999975 48.110000000000014 48.00999999999998 48.110000000000014 47.178999999999974 48.09200000000001 C 47.12799999999997 48.091000000000015 47.09199999999997 48.08600000000001 47.07399999999998 48.08600000000001 C 47.071999999999974 48.08600000000001 47.068999999999974 48.08600000000001 47.06699999999998 48.08600000000001 C 47.058999999999976 48.05700000000001 47.049999999999976 48.003000000000014 47.049999999999976 47.914000000000016 C 47.049999999999976 47.62000000000002 47.04499999999997 47.33000000000001 47.03999999999998 47.04000000000001 C 47.03599999999998 46.76100000000001 47.03099999999998 46.48200000000001 47.03099999999998 46.18400000000001 C 47.00699999999998 44.46500000000001 46.616999999999976 44.00700000000001 44.936999999999976 43.73200000000001 C 43.220999999999975 43.469000000000015 41.88499999999998 43.08900000000001 40.732999999999976 42.53500000000001 C 40.42699999999998 42.38700000000001 40.28999999999998 42.299000000000014 40.229999999999976 42.25200000000001 C 40.237 42.17 40.268 41.991 40.381 41.597 z" stroke-linecap="round" />
</g>
		<g transform="matrix(0.83 0 0 0.83 -40.91 21.09)"  >
<path style="stroke: none; stroke-width: 1; stroke-dasharray: none; stroke-linecap: butt; stroke-dashoffset: 0; stroke-linejoin: miter; stroke-miterlimit: 4; fill: rgb(26,70,94); fill-rule: nonzero; opacity: 1;" vector-effect="non-scaling-stroke"  transform=" translate(-39.31, -75.36)" d="M 46.576 74.849 C 45.54 74.551 44.58 73.982 43.8 73.20100000000001 L 33.466 62.867 C 33.252 62.653 32.949 62.553 32.653 62.587999999999994 C 32.353 62.62499999999999 32.086999999999996 62.8 31.933999999999997 63.059999999999995 C 31.548999999999996 63.708999999999996 31.345 64.45599999999999 31.345 65.22099999999999 L 31.345 83.86399999999999 C 31.345 86.21699999999998 33.259 88.13 35.611 88.13 L 43.018 88.13 C 45.37 88.13 47.284 86.216 47.284 83.86399999999999 L 47.284 75.78899999999999 C 47.284 75.352 46.996 74.969 46.576 74.849 z M 45.328 83.864 C 45.328 85.137 44.292 86.174 43.018 86.174 L 35.611000000000004 86.174 C 34.338 86.174 33.301 85.138 33.301 83.864 L 33.301 65.47 L 42.416000000000004 74.585 C 43.251000000000005 75.41999999999999 44.246 76.07 45.327000000000005 76.491 L 45.327000000000005 83.864 z" stroke-linecap="round" />
</g>
		<g transform="matrix(0.83 0 0 0.83 -24.85 20.82)"  >
<path style="stroke: none; stroke-width: 1; stroke-dasharray: none; stroke-linecap: butt; stroke-dashoffset: 0; stroke-linejoin: miter; stroke-miterlimit: 4; fill: rgb(26,70,94); fill-rule: nonzero; opacity: 1;" vector-effect="non-scaling-stroke"  transform=" translate(-58.63, -75.03)" d="M 63.969 62.217 L 52.985 73.201 C 52.466 73.72099999999999 51.87 74.142 51.214 74.455 C 50.873999999999995 74.617 50.657 74.96 50.657 75.338 L 50.657 83.86399999999999 C 50.657 86.21699999999998 52.571 88.13 54.922999999999995 88.13 L 62.33 88.13 C 64.682 88.13 66.596 86.216 66.596 83.86399999999999 L 66.596 65.221 C 66.596 64.08500000000001 66.15400000000001 63.018 65.352 62.217000000000006 C 64.971 61.835 64.352 61.835 63.969 62.217 z M 64.64 83.864 C 64.64 85.137 63.604 86.174 62.33 86.174 L 54.923 86.174 C 53.65 86.174 52.613 85.138 52.613 83.864 L 52.613 75.928 C 53.252 75.562 53.841 75.111 54.367 74.584 L 64.505 64.446 C 64.592 64.691 64.63799999999999 64.952 64.63799999999999 65.221 L 64.63799999999999 83.864 z" stroke-linecap="round" />
</g>
		<g transform="matrix(0.83 0 0 0.83 -8.8 12.39)"  >
<path style="stroke: none; stroke-width: 1; stroke-dasharray: none; stroke-linecap: butt; stroke-dashoffset: 0; stroke-linejoin: miter; stroke-miterlimit: 4; fill: rgb(26,70,94); fill-rule: nonzero; opacity: 1;" vector-effect="non-scaling-stroke"  transform=" translate(-77.92, -64.9)" d="M 85.194 41.749 C 84.84100000000001 41.628 84.44800000000001 41.718 84.185 41.983000000000004 L 70.238 55.93 C 70.05499999999999 56.113 69.951 56.362 69.951 56.622 L 69.951 83.82900000000001 C 69.951 86.182 71.865 88.09500000000001 74.217 88.09500000000001 L 81.624 88.09500000000001 C 83.976 88.09500000000001 85.89 86.18100000000001 85.89 83.82900000000001 L 85.89 43.10900000000001 C 85.89 42.92500000000001 85.869 42.73800000000001 85.846 42.55300000000001 C 85.801 42.182 85.547 41.87 85.194 41.749 z M 83.935 83.828 C 83.935 85.101 82.899 86.138 81.625 86.138 L 74.218 86.138 C 72.94500000000001 86.138 71.909 85.101 71.909 83.828 L 71.909 57.026 L 83.935 45 L 83.935 83.828 z" stroke-linecap="round" />
</g>
		<g transform="matrix(2.37 0 0 2.37 92.5 0.59)"  >
<linearGradient id="SVGID_SvgjsLinearGradient10335_4" gradientUnits="objectBoundingBox" gradientTransform="matrix(1 0 0 1 0 0)"  x1="0" y1="0" x2="1" y2="0">
<stop offset="0%" style="stop-color:rgb(0,104,56);stop-opacity: 1"/>
<stop offset="100%" style="stop-color:rgb(150,207,36);stop-opacity: 1"/>
</linearGradient>
<path style="stroke: none; stroke-width: 1; stroke-dasharray: none; stroke-linecap: butt; stroke-dashoffset: 0; stroke-linejoin: miter; stroke-miterlimit: 4; fill: url(#SVGID_SvgjsLinearGradient10335_4); fill-rule: nonzero; opacity: 1;" vector-effect="non-scaling-stroke"  transform=" translate(-34.51, -12.87)" d="M 10.8 11 L 9.040000000000001 11 L 9.040000000000001 20 L 7.280000000000001 20 L 7.280000000000001 11 L 5.840000000000002 11 L 5.840000000000002 9.54 L 7.280000000000001 9.54 L 7.280000000000001 7.739999999999999 C 7.280000000000001 6.159999999999999 8.280000000000001 5.4399999999999995 10.000000000000002 5.4399999999999995 C 10.260000000000002 5.4399999999999995 10.520000000000001 5.459999999999999 10.800000000000002 5.4799999999999995 L 10.800000000000002 7.06 C 10.580000000000002 7.04 10.300000000000002 7.02 10.080000000000002 7.02 C 9.320000000000002 7.02 9.040000000000003 7.3999999999999995 9.040000000000003 8.24 L 9.040000000000003 9.540000000000001 L 10.800000000000002 9.540000000000001 L 10.800000000000002 11 z M 14.22 9.54 L 14.22 20 L 12.46 20 L 12.46 9.54 L 14.22 9.54 z M 14.22 7.640000000000001 L 12.46 7.640000000000001 L 12.46 5.640000000000001 L 14.22 5.640000000000001 L 14.22 7.640000000000001 z M 25.380000000000003 12.879999999999999 L 25.380000000000003 20 L 23.62 20 L 23.62 13.559999999999999 C 23.62 11.739999999999998 23.1 10.819999999999999 21.380000000000003 10.819999999999999 C 20.380000000000003 10.819999999999999 18.620000000000005 11.459999999999999 18.620000000000005 14.299999999999999 L 18.620000000000005 20 L 16.860000000000003 20 L 16.860000000000003 9.54 L 18.520000000000003 9.54 L 18.520000000000003 11.02 L 18.560000000000002 11.02 C 18.94 10.459999999999999 19.92 9.24 21.720000000000002 9.24 C 23.340000000000003 9.24 25.380000000000003 9.9 25.380000000000003 12.88 z M 31.820000000000004 11 L 30.140000000000004 11 L 30.140000000000004 17.8 C 30.140000000000004 18.62 30.840000000000003 18.62 31.200000000000003 18.62 L 31.820000000000004 18.62 L 31.820000000000004 20 C 31.180000000000003 20.06 30.680000000000003 20.14 30.500000000000004 20.14 C 28.760000000000005 20.14 28.380000000000003 19.16 28.380000000000003 17.9 L 28.380000000000003 10.999999999999998 L 26.96 10.999999999999998 L 26.96 9.54 L 28.380000000000003 9.54 L 28.380000000000003 6.619999999999999 L 30.140000000000004 6.619999999999999 L 30.140000000000004 9.54 L 31.820000000000004 9.54 L 31.820000000000004 11 z M 40.660000000000004 16.72 L 42.42 16.72 C 42.36 17.22 41.88 18.7 40.56 19.58 C 40.080000000000005 19.9 39.400000000000006 20.299999999999997 37.72 20.299999999999997 C 34.78 20.299999999999997 33.04 18.08 33.04 15.059999999999997 C 33.04 11.819999999999997 34.6 9.239999999999997 38.06 9.239999999999997 C 41.080000000000005 9.239999999999997 42.56 11.639999999999997 42.56 15.339999999999996 L 34.92 15.339999999999996 C 34.92 17.519999999999996 35.940000000000005 18.779999999999998 37.96 18.779999999999998 C 39.62 18.779999999999998 40.6 17.499999999999996 40.660000000000004 16.72 z M 34.92 13.940000000000001 L 40.74 13.940000000000001 C 40.64 12.32 39.96 10.82 37.82 10.82 C 36.2 10.82 34.92 12.32 34.92 13.940000000000001 z M 52.9 13.059999999999999 L 51.199999999999996 13.059999999999999 C 50.98 11.659999999999998 50.199999999999996 10.819999999999999 48.72 10.819999999999999 C 46.54 10.819999999999999 45.839999999999996 12.899999999999999 45.839999999999996 14.759999999999998 C 45.839999999999996 16.56 46.279999999999994 18.779999999999998 48.699999999999996 18.779999999999998 C 49.879999999999995 18.779999999999998 50.9 17.9 51.199999999999996 16.299999999999997 L 52.9 16.299999999999997 C 52.72 17.959999999999997 51.699999999999996 20.299999999999997 48.64 20.299999999999997 C 45.7 20.299999999999997 43.96 18.08 43.96 15.059999999999997 C 43.96 11.819999999999997 45.52 9.239999999999997 48.980000000000004 9.239999999999997 C 51.720000000000006 9.239999999999997 52.760000000000005 11.239999999999997 52.900000000000006 13.059999999999997 z M 63.18 12.879999999999999 L 63.18 20 L 61.42 20 L 61.42 13.16 C 61.42 11.74 61.02 10.82 59.34 10.82 C 57.900000000000006 10.82 56.42 11.66 56.42 14.3 L 56.42 20 L 54.660000000000004 20 L 54.660000000000004 5.640000000000001 L 56.42 5.640000000000001 L 56.42 10.940000000000001 L 56.46 10.940000000000001 C 56.96 10.280000000000001 57.84 9.240000000000002 59.52 9.240000000000002 C 61.14 9.240000000000002 63.18000000000001 9.900000000000002 63.18000000000001 12.880000000000003 z" stroke-linecap="round" />
</g>
</g>
</g>
</svg>